<svg width="74" height="39" viewBox="0 0 74 39" fill="none" xmlns="http://www.w3.org/2000/svg">
<g clip-path="url(#clip0)">
<path d="M2.82076 3.23215C5.60286 0.622477 12.9469 -0.615006 16.6756 0.297391C15.8045 3.10463 16.2373 3.99008 11.3143 5.40717C9.87747 5.81847 6.73796 6.66441 5.89561 8.28087C5.38014 9.28127 4.61862 11.7491 5.52383 12.3633C7.23727 11.4509 9.6817 10.8313 10.912 10.7109C15.007 10.3086 14.2599 12.674 10.815 15.2208C8.15865 17.1803 5.19695 17.2594 5.76091 18.7537C6.60326 20.9844 7.60007 23.6892 7.60007 25.3703C7.60007 26.9096 6.92475 28.7056 5.52742 29.0289C1.6623 29.9234 -3.17268 9.07113 2.82076 3.23215Z" fill="white"/>
<path d="M19.756 5.67011C22.2705 3.31548 22.7752 7.35481 22.5363 10.259C22.4501 11.3367 21.8556 17.0104 22.5363 19.7314C23.0536 21.8292 24.0953 24.2216 24.0953 25.741C24.0953 27.1348 23.4828 28.7638 22.2166 29.0566C18.7053 29.8648 14.3229 10.9703 19.756 5.67011Z" fill="white"/>
<path d="M39.6295 14.6684C34.1964 19.9686 38.5788 38.8649 42.0793 38.0549C43.3473 37.7621 43.9598 36.1349 43.9598 34.7394C43.9598 33.2163 42.9181 30.8276 42.4008 28.7316C42.1907 27.8838 42.1296 26.7559 42.0883 25.5597C42.0272 23.6379 47.9542 26.5817 48.7445 17.0033C49.2114 11.405 40.2312 14.1063 39.6295 14.6684ZM42.2948 21.6731C41.6087 21.691 39.0422 19.3669 41.2819 17.1829C41.5297 16.9494 45.2332 15.8359 45.041 18.1456C44.7213 22.1023 42.8893 21.6659 42.2948 21.6802V21.6731Z" fill="white"/>
<path d="M51.8342 14.6379C46.403 19.9381 50.7854 38.8326 54.2859 38.0244C55.5521 37.7316 56.1663 36.1044 56.1663 34.7088C56.1663 33.184 55.1246 30.797 54.6056 28.6992C54.3972 27.8533 54.3362 26.7236 54.2931 25.5292C54.2248 23.6074 60.159 26.5512 60.951 16.9728C61.4126 11.3745 52.4449 14.0757 51.8342 14.6379ZM54.5014 21.6425C53.8153 21.6605 51.2469 19.3364 53.4884 17.1524C53.7363 16.9207 57.4397 15.8071 57.2458 18.1169C56.9207 22.0718 55.0959 21.6336 54.5014 21.6497V21.6425Z" fill="white"/>
<path d="M30.1739 16.7931C26.8099 16.7931 24.5576 19.5195 24.5576 22.8853C24.5576 26.2511 27.302 28.6327 30.648 28.9757C33.8289 29.308 36.6684 25.31 36.6684 21.946C36.6684 18.582 33.5379 16.7931 30.1739 16.7931ZM30.8312 26.1164C28.9562 26.1038 27.2391 24.764 27.2391 22.8835C27.2391 21.003 28.737 19.9362 30.6121 19.9362C32.4872 19.9362 33.6654 20.8163 33.6654 22.6913C33.6654 24.5664 32.6417 26.129 30.8312 26.1164Z" fill="white"/>
<path d="M70.515 13.8871C70.1701 13.5638 68.692 13.3483 68.2627 14.0433C67.9035 14.6217 68.6219 15.9831 68.8608 16.407C70.5509 19.295 68.5339 20.9169 67.8478 20.8971C67.2533 20.8827 65.8344 21.2563 65.1034 17.3696C64.5808 14.5911 61.2239 14.1152 61.3981 16.222C62.1902 25.7985 68.1244 22.8548 68.0562 24.7784C68.013 25.9692 67.952 27.1007 67.7436 27.9484C67.2246 30.0462 66.1829 32.4386 66.1829 33.9562C66.1829 35.3518 66.7971 36.979 68.0633 37.2717C71.5639 38.0764 76.0576 19.0705 70.515 13.8871Z" fill="white"/>
</g>
<defs>
<clipPath id="clip0">
<rect width="73.1211" height="38.08" fill="white"/>
</clipPath>
</defs>
</svg>
